<svg xmlns="http://www.w3.org/2000/svg" xmlns:xlink="http://www.w3.org/1999/xlink" width="500" zoomAndPan="magnify" viewBox="0 0 375 374.999991" height="500" preserveAspectRatio="xMidYMid meet" version="1.0"><defs><g/></defs><g fill="#ffffff" fill-opacity="1"><g transform="translate(54.370522, 175.464202)"><g><path d="M 1.984375 -14.765625 C 1.765625 -12.628906 1.28125 -10.742188 0.53125 -9.109375 C -0.21875 -7.472656 -1.117188 -6.140625 -2.171875 -5.109375 C -3.234375 -4.078125 -4.351562 -3.335938 -5.53125 -2.890625 L -7.953125 -5.34375 L -7.890625 -5.90625 C -4.148438 -7.65625 -2.054688 -10.726562 -1.609375 -15.125 C -1.359375 -17.675781 -1.703125 -19.628906 -2.640625 -20.984375 C -3.578125 -22.335938 -5 -23.109375 -6.90625 -23.296875 C -8.007812 -23.410156 -8.96875 -23.300781 -9.78125 -22.96875 C -10.601562 -22.632812 -11.332031 -22.019531 -11.96875 -21.125 C -12.613281 -20.238281 -13.222656 -19.003906 -13.796875 -17.421875 L -15.15625 -13.546875 C -16.164062 -10.679688 -17.519531 -8.625 -19.21875 -7.375 C -20.914062 -6.132812 -22.953125 -5.632812 -25.328125 -5.875 C -27.015625 -6.050781 -28.472656 -6.632812 -29.703125 -7.625 C -30.941406 -8.625 -31.847656 -9.992188 -32.421875 -11.734375 C -32.992188 -13.484375 -33.160156 -15.515625 -32.921875 -17.828125 C -32.671875 -20.378906 -32.097656 -22.492188 -31.203125 -24.171875 C -30.304688 -25.859375 -29.082031 -27.15625 -27.53125 -28.0625 L -25.109375 -25.84375 L -25.171875 -25.265625 C -26.460938 -24.410156 -27.453125 -23.34375 -28.140625 -22.0625 C -28.828125 -20.789062 -29.257812 -19.257812 -29.4375 -17.46875 C -29.675781 -15.125 -29.398438 -13.304688 -28.609375 -12.015625 C -27.816406 -10.734375 -26.617188 -10.015625 -25.015625 -9.859375 C -23.484375 -9.703125 -22.21875 -10.019531 -21.21875 -10.8125 C -20.226562 -11.601562 -19.382812 -13.015625 -18.6875 -15.046875 L -17.3125 -19 C -16.195312 -22.207031 -14.769531 -24.46875 -13.03125 -25.78125 C -11.289062 -27.09375 -9.175781 -27.625 -6.6875 -27.375 C -4.769531 -27.1875 -3.113281 -26.585938 -1.71875 -25.578125 C -0.320312 -24.566406 0.703125 -23.148438 1.359375 -21.328125 C 2.023438 -19.503906 2.234375 -17.316406 1.984375 -14.765625 Z M 1.984375 -14.765625 "/></g></g></g><g fill="#ffffff" fill-opacity="1"><g transform="translate(57.560313, 148.608338)"><g/></g></g><g fill="#ffffff" fill-opacity="1"><g transform="translate(58.819779, 139.156759)"><g><path d="M 7.71875 -17.1875 C 6.5625 -14.425781 4.90625 -12.234375 2.75 -10.609375 C 0.59375 -8.992188 -1.953125 -8.082031 -4.890625 -7.875 C -7.828125 -7.675781 -11 -8.289062 -14.40625 -9.71875 C -17.789062 -11.132812 -20.441406 -12.957031 -22.359375 -15.1875 C -24.273438 -17.425781 -25.414062 -19.878906 -25.78125 -22.546875 C -26.15625 -25.222656 -25.765625 -27.941406 -24.609375 -30.703125 C -23.378906 -33.628906 -21.800781 -35.835938 -19.875 -37.328125 C -17.957031 -38.816406 -15.695312 -39.519531 -13.09375 -39.4375 L -12.515625 -36.40625 L -12.734375 -35.875 C -14.898438 -35.757812 -16.644531 -35.171875 -17.96875 -34.109375 C -19.289062 -33.046875 -20.398438 -31.445312 -21.296875 -29.3125 C -22.128906 -27.332031 -22.425781 -25.390625 -22.1875 -23.484375 C -21.945312 -21.585938 -21.054688 -19.785156 -19.515625 -18.078125 C -17.984375 -16.378906 -15.726562 -14.910156 -12.75 -13.671875 C -9.769531 -12.421875 -7.132812 -11.847656 -4.84375 -11.953125 C -2.5625 -12.054688 -0.664062 -12.691406 0.84375 -13.859375 C 2.363281 -15.023438 3.539062 -16.597656 4.375 -18.578125 C 5.320312 -20.847656 5.585938 -22.921875 5.171875 -24.796875 C 4.753906 -26.671875 3.550781 -28.4375 1.5625 -30.09375 L 1.78125 -30.640625 L 4.046875 -32.578125 C 6.503906 -30.679688 8.050781 -28.414062 8.6875 -25.78125 C 9.332031 -23.15625 9.007812 -20.289062 7.71875 -17.1875 Z M 7.71875 -17.1875 "/></g></g></g><g fill="#ffffff" fill-opacity="1"><g transform="translate(71.412575, 110.781339)"><g/></g></g><g fill="#ffffff" fill-opacity="1"><g transform="translate(75.638042, 102.163238)"><g><path d="M 3.3125 -3.9375 L -22.734375 -25.859375 L -14.765625 -35.328125 C -13.296875 -37.066406 -11.773438 -38.289062 -10.203125 -39 C -8.628906 -39.707031 -7.066406 -39.914062 -5.515625 -39.625 C -3.960938 -39.332031 -2.46875 -38.582031 -1.03125 -37.375 C 0.582031 -36.007812 1.578125 -34.476562 1.953125 -32.78125 C 2.328125 -31.09375 2.054688 -29.171875 1.140625 -27.015625 L 1.5 -26.703125 C 2.5625 -27.265625 3.671875 -27.515625 4.828125 -27.453125 C 5.984375 -27.390625 7.460938 -26.988281 9.265625 -26.25 L 18.796875 -22.328125 L 16.140625 -19.171875 L 6 -23.265625 C 4.789062 -23.753906 3.75 -24.019531 2.875 -24.0625 C 2.007812 -24.101562 1.195312 -23.914062 0.4375 -23.5 C -0.320312 -23.09375 -1.101562 -22.414062 -1.90625 -21.46875 L -5.796875 -16.84375 L 5.890625 -7 Z M -3.078125 -25.359375 C -1.703125 -26.984375 -1.054688 -28.507812 -1.140625 -29.9375 C -1.222656 -31.375 -2.039062 -32.742188 -3.59375 -34.046875 C -5.125 -35.335938 -6.601562 -35.90625 -8.03125 -35.75 C -9.457031 -35.59375 -10.859375 -34.703125 -12.234375 -33.078125 L -17.5625 -26.75 L -8.40625 -19.03125 Z M -3.078125 -25.359375 "/></g></g></g><g fill="#ffffff" fill-opacity="1"><g transform="translate(94.938904, 80.139734)"><g/></g></g><g fill="#ffffff" fill-opacity="1"><g transform="translate(101.064064, 73.016495)"><g><path d="M 16.140625 -9.421875 C 13.628906 -7.859375 11.0625 -7.015625 8.4375 -6.890625 C 5.820312 -6.765625 3.265625 -7.46875 0.765625 -9 C -1.734375 -10.539062 -4.007812 -12.96875 -6.0625 -16.28125 C -8.113281 -19.59375 -9.265625 -22.707031 -9.515625 -25.625 C -9.765625 -28.539062 -9.242188 -31.144531 -7.953125 -33.4375 C -6.671875 -35.726562 -4.773438 -37.65625 -2.265625 -39.21875 C 0.242188 -40.769531 2.804688 -41.601562 5.421875 -41.71875 C 8.046875 -41.832031 10.601562 -41.125 13.09375 -39.59375 C 15.59375 -38.0625 17.867188 -35.640625 19.921875 -32.328125 C 21.972656 -29.015625 23.125 -25.894531 23.375 -22.96875 C 23.632812 -20.050781 23.117188 -17.453125 21.828125 -15.171875 C 20.546875 -12.890625 18.648438 -10.972656 16.140625 -9.421875 Z M 14.203125 -12.5625 C 17.210938 -14.414062 18.9375 -16.78125 19.375 -19.65625 C 19.820312 -22.539062 18.789062 -26.015625 16.28125 -30.078125 C 13.769531 -34.148438 11.125 -36.628906 8.34375 -37.515625 C 5.570312 -38.398438 2.679688 -37.914062 -0.328125 -36.0625 C -6.554688 -32.207031 -7.25 -26.363281 -2.40625 -18.53125 C 2.4375 -10.695312 7.972656 -8.707031 14.203125 -12.5625 Z M 14.203125 -12.5625 "/></g></g></g><g fill="#ffffff" fill-opacity="1"><g transform="translate(131.113016, 55.464262)"><g/></g></g><g fill="#ffffff" fill-opacity="1"><g transform="translate(139.907334, 51.205414)"><g><path d="M 0.390625 -35.25 L 8.046875 -5.484375 L 23.90625 -9.5625 L 24.734375 -6.359375 L 4.984375 -1.28125 L -3.5 -34.25 Z M 0.390625 -35.25 "/></g></g></g><g fill="#ffffff" fill-opacity="1"><g transform="translate(164.197631, 45.34304)"><g/></g></g><g fill="#ffffff" fill-opacity="1"><g transform="translate(173.801975, 43.549874)"><g><path d="M 9.640625 -33.921875 L 9.203125 -3.1875 L 25.59375 -2.953125 L 25.546875 0.359375 L 5.140625 0.078125 L 5.625 -33.96875 Z M 9.640625 -33.921875 "/></g></g></g><g fill="#ffffff" fill-opacity="1"><g transform="translate(198.779375, 44.278588)"><g/></g></g><g fill="#ffffff" fill-opacity="1"><g transform="translate(209.157703, 45.767535)"><g/></g></g><g fill="#ffffff" fill-opacity="1"><g transform="translate(218.538481, 46.707364)"><g><path d="M 27.953125 -25.265625 C 31.140625 -23.953125 33.640625 -22.25 35.453125 -20.15625 C 37.273438 -18.070312 38.320312 -15.601562 38.59375 -12.75 C 38.863281 -9.894531 38.269531 -6.707031 36.8125 -3.1875 C 35.34375 0.34375 33.503906 3.019531 31.296875 4.84375 C 29.097656 6.664062 26.617188 7.671875 23.859375 7.859375 C 21.097656 8.054688 18.125 7.5 14.9375 6.1875 L 4.75 1.96875 L 17.765625 -29.484375 Z M 15.859375 2.890625 C 18.492188 3.972656 20.835938 4.457031 22.890625 4.34375 C 24.953125 4.238281 26.8125 3.445312 28.46875 1.96875 C 30.125 0.5 31.585938 -1.765625 32.859375 -4.828125 C 34.128906 -7.898438 34.695312 -10.539062 34.5625 -12.75 C 34.4375 -14.96875 33.679688 -16.84375 32.296875 -18.375 C 30.921875 -19.90625 28.914062 -21.210938 26.28125 -22.296875 L 20.171875 -24.828125 L 9.75 0.359375 Z M 15.859375 2.890625 "/></g></g></g><g fill="#ffffff" fill-opacity="1"><g transform="translate(249.361881, 60.324964)"><g/></g></g><g fill="#ffffff" fill-opacity="1"><g transform="translate(257.938888, 64.153159)"><g><path d="M 13.65625 12.765625 C 11.4375 10.796875 9.890625 8.578125 9.015625 6.109375 C 8.140625 3.640625 8.078125 0.988281 8.828125 -1.84375 C 9.585938 -4.6875 11.257812 -7.5625 13.84375 -10.46875 C 16.4375 -13.382812 19.09375 -15.378906 21.8125 -16.453125 C 24.53125 -17.535156 27.171875 -17.796875 29.734375 -17.234375 C 32.304688 -16.671875 34.703125 -15.40625 36.921875 -13.4375 C 39.117188 -11.476562 40.648438 -9.257812 41.515625 -6.78125 C 42.390625 -4.300781 42.453125 -1.648438 41.703125 1.171875 C 40.953125 4.003906 39.28125 6.878906 36.6875 9.796875 C 34.101562 12.703125 31.445312 14.695312 28.71875 15.78125 C 26 16.875 23.359375 17.132812 20.796875 16.5625 C 18.234375 15.988281 15.851562 14.722656 13.65625 12.765625 Z M 16.125 10 C 18.757812 12.34375 21.519531 13.3125 24.40625 12.90625 C 27.289062 12.507812 30.316406 10.523438 33.484375 6.953125 C 36.660156 3.367188 38.273438 0.125 38.328125 -2.78125 C 38.378906 -5.6875 37.085938 -8.3125 34.453125 -10.65625 C 28.960938 -15.519531 23.160156 -14.507812 17.046875 -7.625 C 10.941406 -0.738281 10.632812 5.132812 16.125 10 Z M 16.125 10 "/></g></g></g><g fill="#ffffff" fill-opacity="1"><g transform="translate(283.388792, 87.886098)"><g/></g></g><g fill="#ffffff" fill-opacity="1"><g transform="translate(290.472745, 93.787914)"><g><path d="M 6.921875 13.1875 L 4.484375 8.53125 L 31.015625 -14.1875 L 32.84375 -10.671875 L 10.890625 8.078125 L 11.15625 8.578125 L 39.640625 2.265625 L 41.359375 5.546875 L 19.96875 25.390625 L 20.25 25.921875 L 48.171875 18.53125 L 49.953125 21.9375 L 16.1875 30.859375 L 13.734375 26.1875 L 33.265625 7.921875 L 33.046875 7.484375 Z M 6.921875 13.1875 "/></g></g></g><g fill="#ffffff" fill-opacity="1"><g transform="translate(308.614731, 131.121382)"><g/></g></g><g fill="#ffffff" fill-opacity="1"><g transform="translate(312.442797, 139.74056)"><g><path d="M 1.125 8.984375 L 0.640625 5.09375 L 34.421875 0.859375 L 35.03125 5.75 L 11.296875 25.46875 L 11.453125 26.015625 L 37.171875 22.796875 L 37.65625 26.65625 L 3.875 30.890625 L 3.359375 26.75 L 28.8125 6.09375 L 28.640625 5.53125 Z M 1.125 8.984375 "/></g></g></g><g fill="#ffffff" fill-opacity="1"><g transform="translate(320.61241, 199.529195)"><g><path d="M -1.984375 14.765625 C -1.765625 12.628906 -1.28125 10.742188 -0.53125 9.109375 C 0.21875 7.472656 1.117188 6.140625 2.171875 5.109375 C 3.234375 4.078125 4.351562 3.335938 5.53125 2.890625 L 7.953125 5.34375 L 7.890625 5.90625 C 4.148438 7.65625 2.054688 10.726562 1.609375 15.125 C 1.359375 17.675781 1.703125 19.628906 2.640625 20.984375 C 3.578125 22.335938 5 23.109375 6.90625 23.296875 C 8.007812 23.410156 8.96875 23.300781 9.78125 22.96875 C 10.601562 22.632812 11.332031 22.019531 11.96875 21.125 C 12.613281 20.238281 13.222656 19.003906 13.796875 17.421875 L 15.15625 13.546875 C 16.164062 10.679688 17.519531 8.625 19.21875 7.375 C 20.914062 6.132812 22.953125 5.632812 25.328125 5.875 C 27.015625 6.050781 28.472656 6.632812 29.703125 7.625 C 30.941406 8.625 31.847656 9.992188 32.421875 11.734375 C 32.992188 13.484375 33.160156 15.515625 32.921875 17.828125 C 32.671875 20.378906 32.097656 22.492188 31.203125 24.171875 C 30.304688 25.859375 29.082031 27.15625 27.53125 28.0625 L 25.109375 25.84375 L 25.171875 25.265625 C 26.460938 24.410156 27.453125 23.34375 28.140625 22.0625 C 28.828125 20.789062 29.257812 19.257812 29.4375 17.46875 C 29.675781 15.125 29.398438 13.304688 28.609375 12.015625 C 27.816406 10.734375 26.617188 10.015625 25.015625 9.859375 C 23.484375 9.703125 22.21875 10.019531 21.21875 10.8125 C 20.226562 11.601562 19.382812 13.015625 18.6875 15.046875 L 17.3125 19 C 16.195312 22.207031 14.769531 24.46875 13.03125 25.78125 C 11.289062 27.09375 9.175781 27.625 6.6875 27.375 C 4.769531 27.1875 3.113281 26.585938 1.71875 25.578125 C 0.320312 24.566406 -0.703125 23.148438 -1.359375 21.328125 C -2.023438 19.503906 -2.234375 17.316406 -1.984375 14.765625 Z M -1.984375 14.765625 "/></g></g></g><g fill="#ffffff" fill-opacity="1"><g transform="translate(317.422633, 226.385045)"><g/></g></g><g fill="#ffffff" fill-opacity="1"><g transform="translate(316.163141, 235.836626)"><g><path d="M -7.71875 17.1875 C -6.5625 14.425781 -4.90625 12.234375 -2.75 10.609375 C -0.59375 8.992188 1.953125 8.082031 4.890625 7.875 C 7.828125 7.675781 11 8.289062 14.40625 9.71875 C 17.789062 11.132812 20.441406 12.957031 22.359375 15.1875 C 24.273438 17.425781 25.414062 19.878906 25.78125 22.546875 C 26.15625 25.222656 25.765625 27.941406 24.609375 30.703125 C 23.378906 33.628906 21.800781 35.835938 19.875 37.328125 C 17.957031 38.816406 15.695312 39.519531 13.09375 39.4375 L 12.515625 36.40625 L 12.734375 35.875 C 14.898438 35.757812 16.644531 35.171875 17.96875 34.109375 C 19.289062 33.046875 20.398438 31.445312 21.296875 29.3125 C 22.128906 27.332031 22.425781 25.390625 22.1875 23.484375 C 21.945312 21.585938 21.054688 19.785156 19.515625 18.078125 C 17.984375 16.378906 15.726562 14.910156 12.75 13.671875 C 9.769531 12.421875 7.132812 11.847656 4.84375 11.953125 C 2.5625 12.054688 0.664062 12.691406 -0.84375 13.859375 C -2.363281 15.023438 -3.539062 16.597656 -4.375 18.578125 C -5.320312 20.847656 -5.585938 22.921875 -5.171875 24.796875 C -4.753906 26.671875 -3.550781 28.4375 -1.5625 30.09375 L -1.78125 30.640625 L -4.046875 32.578125 C -6.503906 30.679688 -8.050781 28.414062 -8.6875 25.78125 C -9.332031 23.15625 -9.007812 20.289062 -7.71875 17.1875 Z M -7.71875 17.1875 "/></g></g></g><g fill="#ffffff" fill-opacity="1"><g transform="translate(303.570336, 264.212068)"><g/></g></g><g fill="#ffffff" fill-opacity="1"><g transform="translate(299.344874, 272.830147)"><g><path d="M -3.3125 3.9375 L 22.734375 25.859375 L 14.765625 35.328125 C 13.296875 37.066406 11.773438 38.289062 10.203125 39 C 8.628906 39.707031 7.066406 39.914062 5.515625 39.625 C 3.960938 39.332031 2.46875 38.582031 1.03125 37.375 C -0.582031 36.007812 -1.578125 34.476562 -1.953125 32.78125 C -2.328125 31.09375 -2.054688 29.171875 -1.140625 27.015625 L -1.5 26.703125 C -2.5625 27.265625 -3.671875 27.515625 -4.828125 27.453125 C -5.984375 27.390625 -7.460938 26.988281 -9.265625 26.25 L -18.796875 22.328125 L -16.140625 19.171875 L -6 23.265625 C -4.789062 23.753906 -3.75 24.019531 -2.875 24.0625 C -2.007812 24.101562 -1.195312 23.914062 -0.4375 23.5 C 0.320312 23.09375 1.101562 22.414062 1.90625 21.46875 L 5.796875 16.84375 L -5.890625 7 Z M 3.078125 25.359375 C 1.703125 26.984375 1.054688 28.507812 1.140625 29.9375 C 1.222656 31.375 2.039062 32.742188 3.59375 34.046875 C 5.125 35.335938 6.601562 35.90625 8.03125 35.75 C 9.457031 35.59375 10.859375 34.703125 12.234375 33.078125 L 17.5625 26.75 L 8.40625 19.03125 Z M 3.078125 25.359375 "/></g></g></g><g fill="#ffffff" fill-opacity="1"><g transform="translate(280.044022, 294.853656)"><g/></g></g><g fill="#ffffff" fill-opacity="1"><g transform="translate(273.918876, 301.976875)"><g><path d="M -16.140625 9.421875 C -13.628906 7.859375 -11.0625 7.015625 -8.4375 6.890625 C -5.820312 6.765625 -3.265625 7.46875 -0.765625 9 C 1.734375 10.539062 4.007812 12.96875 6.0625 16.28125 C 8.113281 19.59375 9.265625 22.707031 9.515625 25.625 C 9.765625 28.539062 9.242188 31.144531 7.953125 33.4375 C 6.671875 35.726562 4.773438 37.65625 2.265625 39.21875 C -0.242188 40.769531 -2.804688 41.601562 -5.421875 41.71875 C -8.046875 41.832031 -10.601562 41.125 -13.09375 39.59375 C -15.59375 38.0625 -17.867188 35.640625 -19.921875 32.328125 C -21.972656 29.015625 -23.125 25.894531 -23.375 22.96875 C -23.632812 20.050781 -23.117188 17.453125 -21.828125 15.171875 C -20.546875 12.890625 -18.648438 10.972656 -16.140625 9.421875 Z M -14.203125 12.5625 C -17.210938 14.414062 -18.9375 16.78125 -19.375 19.65625 C -19.820312 22.539062 -18.789062 26.015625 -16.28125 30.078125 C -13.769531 34.148438 -11.125 36.628906 -8.34375 37.515625 C -5.570312 38.398438 -2.679688 37.914062 0.328125 36.0625 C 6.554688 32.207031 7.25 26.363281 2.40625 18.53125 C -2.4375 10.695312 -7.972656 8.707031 -14.203125 12.5625 Z M -14.203125 12.5625 "/></g></g></g><g fill="#ffffff" fill-opacity="1"><g transform="translate(243.869905, 319.529108)"><g/></g></g><g fill="#ffffff" fill-opacity="1"><g transform="translate(235.075584, 323.78798)"><g><path d="M -0.390625 35.25 L -8.046875 5.484375 L -23.90625 9.5625 L -24.734375 6.359375 L -4.984375 1.28125 L 3.5 34.25 Z M -0.390625 35.25 "/></g></g></g><g fill="#ffffff" fill-opacity="1"><g transform="translate(210.785287, 329.650362)"><g/></g></g><g fill="#ffffff" fill-opacity="1"><g transform="translate(201.180945, 331.4435)"><g><path d="M -9.640625 33.921875 L -9.203125 3.1875 L -25.59375 2.953125 L -25.546875 -0.359375 L -5.140625 -0.078125 L -5.625 33.96875 Z M -9.640625 33.921875 "/></g></g></g><g fill="#ffffff" fill-opacity="1"><g transform="translate(176.203559, 330.714822)"><g/></g></g><g fill="#ffffff" fill-opacity="1"><g transform="translate(165.825229, 329.225852)"><g/></g></g><g fill="#ffffff" fill-opacity="1"><g transform="translate(156.444437, 328.286006)"><g><path d="M -27.953125 25.265625 C -31.140625 23.953125 -33.640625 22.25 -35.453125 20.15625 C -37.273438 18.070312 -38.320312 15.601562 -38.59375 12.75 C -38.863281 9.894531 -38.269531 6.707031 -36.8125 3.1875 C -35.34375 -0.34375 -33.503906 -3.019531 -31.296875 -4.84375 C -29.097656 -6.664062 -26.617188 -7.671875 -23.859375 -7.859375 C -21.097656 -8.054688 -18.125 -7.5 -14.9375 -6.1875 L -4.75 -1.96875 L -17.765625 29.484375 Z M -15.859375 -2.890625 C -18.492188 -3.972656 -20.835938 -4.457031 -22.890625 -4.34375 C -24.953125 -4.238281 -26.8125 -3.445312 -28.46875 -1.96875 C -30.125 -0.5 -31.585938 1.765625 -32.859375 4.828125 C -34.128906 7.898438 -34.695312 10.539062 -34.5625 12.75 C -34.4375 14.96875 -33.679688 16.84375 -32.296875 18.375 C -30.921875 19.90625 -28.914062 21.210938 -26.28125 22.296875 L -20.171875 24.828125 L -9.75 -0.359375 Z M -15.859375 -2.890625 "/></g></g></g><g fill="#ffffff" fill-opacity="1"><g transform="translate(125.62104, 314.668417)"><g/></g></g><g fill="#ffffff" fill-opacity="1"><g transform="translate(117.044047, 310.840227)"><g><path d="M -13.65625 -12.765625 C -11.4375 -10.796875 -9.890625 -8.578125 -9.015625 -6.109375 C -8.140625 -3.640625 -8.078125 -0.988281 -8.828125 1.84375 C -9.585938 4.6875 -11.257812 7.5625 -13.84375 10.46875 C -16.4375 13.382812 -19.09375 15.378906 -21.8125 16.453125 C -24.53125 17.535156 -27.171875 17.796875 -29.734375 17.234375 C -32.304688 16.671875 -34.703125 15.40625 -36.921875 13.4375 C -39.117188 11.476562 -40.648438 9.257812 -41.515625 6.78125 C -42.390625 4.300781 -42.453125 1.648438 -41.703125 -1.171875 C -40.953125 -4.003906 -39.28125 -6.878906 -36.6875 -9.796875 C -34.101562 -12.703125 -31.445312 -14.695312 -28.71875 -15.78125 C -26 -16.875 -23.359375 -17.132812 -20.796875 -16.5625 C -18.234375 -15.988281 -15.851562 -14.722656 -13.65625 -12.765625 Z M -16.125 -10 C -18.757812 -12.34375 -21.519531 -13.3125 -24.40625 -12.90625 C -27.289062 -12.507812 -30.316406 -10.523438 -33.484375 -6.953125 C -36.660156 -3.367188 -38.273438 -0.125 -38.328125 2.78125 C -38.378906 5.6875 -37.085938 8.3125 -34.453125 10.65625 C -28.960938 15.519531 -23.160156 14.507812 -17.046875 7.625 C -10.941406 0.738281 -10.632812 -5.132812 -16.125 -10 Z M -16.125 -10 "/></g></g></g><g fill="#ffffff" fill-opacity="1"><g transform="translate(91.594147, 287.107283)"><g/></g></g><g fill="#ffffff" fill-opacity="1"><g transform="translate(84.510187, 281.205471)"><g><path d="M -6.921875 -13.1875 L -4.484375 -8.53125 L -31.015625 14.1875 L -32.84375 10.671875 L -10.890625 -8.078125 L -11.15625 -8.578125 L -39.640625 -2.265625 L -41.359375 -5.546875 L -19.96875 -25.390625 L -20.25 -25.921875 L -48.171875 -18.53125 L -49.953125 -21.9375 L -16.1875 -30.859375 L -13.734375 -26.1875 L -33.265625 -7.921875 L -33.046875 -7.484375 Z M -6.921875 -13.1875 "/></g></g></g><g fill="#ffffff" fill-opacity="1"><g transform="translate(66.368209, 243.872011)"><g/></g></g><g fill="#ffffff" fill-opacity="1"><g transform="translate(62.540127, 235.252825)"><g><path d="M -1.125 -8.984375 L -0.640625 -5.09375 L -34.421875 -0.859375 L -35.03125 -5.75 L -11.296875 -25.46875 L -11.453125 -26.015625 L -37.171875 -22.796875 L -37.65625 -26.65625 L -3.875 -30.890625 L -3.359375 -26.75 L -28.8125 -6.09375 L -28.640625 -5.53125 Z M -1.125 -8.984375 "/></g></g></g></svg>