<svg xmlns="http://www.w3.org/2000/svg" xmlns:xlink="http://www.w3.org/1999/xlink" width="500" zoomAndPan="magnify" viewBox="0 0 375 374.999991" height="500" preserveAspectRatio="xMidYMid meet" version="1.0"><defs><g/></defs><g fill="#ffffff" fill-opacity="1"><g transform="translate(86.587379, 193.621491)"><g/></g></g><g fill="#ffffff" fill-opacity="1"><g transform="translate(85.625393, 185.685208)"><g><path d="M 1.640625 -12.15625 C 1.460938 -10.394531 1.0625 -8.84375 0.4375 -7.5 C -0.175781 -6.15625 -0.914062 -5.054688 -1.78125 -4.203125 C -2.65625 -3.359375 -3.582031 -2.753906 -4.5625 -2.390625 L -6.5625 -4.40625 L -6.515625 -4.890625 C -3.421875 -6.328125 -1.691406 -8.851562 -1.328125 -12.46875 C -1.117188 -14.570312 -1.398438 -16.175781 -2.171875 -17.28125 C -2.941406 -18.394531 -4.113281 -19.035156 -5.6875 -19.203125 C -6.601562 -19.296875 -7.394531 -19.203125 -8.0625 -18.921875 C -8.738281 -18.640625 -9.34375 -18.132812 -9.875 -17.40625 C -10.40625 -16.6875 -10.90625 -15.675781 -11.375 -14.375 L -12.5 -11.171875 C -13.320312 -8.804688 -14.429688 -7.109375 -15.828125 -6.078125 C -17.234375 -5.046875 -18.914062 -4.628906 -20.875 -4.828125 C -22.257812 -4.972656 -23.457031 -5.457031 -24.46875 -6.28125 C -25.488281 -7.101562 -26.234375 -8.234375 -26.703125 -9.671875 C -27.179688 -11.109375 -27.328125 -12.785156 -27.140625 -14.703125 C -26.921875 -16.796875 -26.441406 -18.535156 -25.703125 -19.921875 C -24.960938 -21.304688 -23.957031 -22.375 -22.6875 -23.125 L -20.703125 -21.3125 L -20.75 -20.828125 C -21.800781 -20.109375 -22.613281 -19.222656 -23.1875 -18.171875 C -23.757812 -17.128906 -24.125 -15.875 -24.28125 -14.40625 C -24.46875 -12.46875 -24.234375 -10.96875 -23.578125 -9.90625 C -22.921875 -8.851562 -21.929688 -8.257812 -20.609375 -8.125 C -19.347656 -8 -18.304688 -8.257812 -17.484375 -8.90625 C -16.671875 -9.550781 -15.976562 -10.710938 -15.40625 -12.390625 L -14.265625 -15.640625 C -13.347656 -18.296875 -12.164062 -20.164062 -10.71875 -21.25 C -9.28125 -22.332031 -7.535156 -22.773438 -5.484375 -22.578125 C -3.910156 -22.410156 -2.550781 -21.910156 -1.40625 -21.078125 C -0.257812 -20.253906 0.582031 -19.085938 1.125 -17.578125 C 1.675781 -16.066406 1.847656 -14.257812 1.640625 -12.15625 Z M 1.640625 -12.15625 "/></g></g></g><g fill="#ffffff" fill-opacity="1"><g transform="translate(88.253699, 163.556616)"><g/></g></g><g fill="#ffffff" fill-opacity="1"><g transform="translate(89.291473, 155.768741)"><g><path d="M 6.359375 -14.15625 C 5.410156 -11.882812 4.046875 -10.078125 2.265625 -8.734375 C 0.492188 -7.398438 -1.601562 -6.648438 -4.03125 -6.484375 C -6.457031 -6.316406 -9.066406 -6.816406 -11.859375 -7.984375 C -14.660156 -9.160156 -16.851562 -10.671875 -18.4375 -12.515625 C -20.019531 -14.359375 -20.957031 -16.378906 -21.25 -18.578125 C -21.550781 -20.785156 -21.226562 -23.023438 -20.28125 -25.296875 C -19.269531 -27.710938 -17.96875 -29.53125 -16.375 -30.75 C -14.789062 -31.976562 -12.9375 -32.5625 -10.8125 -32.5 L -10.3125 -30.015625 L -10.484375 -29.578125 C -12.273438 -29.484375 -13.71875 -29 -14.8125 -28.125 C -15.90625 -27.25 -16.820312 -25.925781 -17.5625 -24.15625 C -18.238281 -22.519531 -18.476562 -20.921875 -18.28125 -19.359375 C -18.082031 -17.796875 -17.351562 -16.3125 -16.09375 -14.90625 C -14.832031 -13.5 -12.96875 -12.28125 -10.5 -11.25 C -8.050781 -10.226562 -5.882812 -9.757812 -4 -9.84375 C -2.125 -9.9375 -0.554688 -10.460938 0.703125 -11.421875 C 1.960938 -12.378906 2.929688 -13.675781 3.609375 -15.3125 C 4.390625 -17.1875 4.609375 -18.894531 4.265625 -20.4375 C 3.921875 -21.976562 2.925781 -23.429688 1.28125 -24.796875 L 1.46875 -25.25 L 3.3125 -26.859375 C 5.351562 -25.285156 6.640625 -23.414062 7.171875 -21.25 C 7.703125 -19.082031 7.429688 -16.71875 6.359375 -14.15625 Z M 6.359375 -14.15625 "/></g></g></g><g fill="#ffffff" fill-opacity="1"><g transform="translate(99.667634, 132.388087)"><g/></g></g><g fill="#ffffff" fill-opacity="1"><g transform="translate(103.149315, 125.286978)"><g><path d="M 2.734375 -3.25 L -18.734375 -21.328125 L -12.171875 -29.125 C -10.960938 -30.5625 -9.707031 -31.566406 -8.40625 -32.140625 C -7.113281 -32.722656 -5.820312 -32.894531 -4.53125 -32.65625 C -3.25 -32.414062 -2.019531 -31.796875 -0.84375 -30.796875 C 0.488281 -29.679688 1.304688 -28.421875 1.609375 -27.015625 C 1.921875 -25.617188 1.695312 -24.039062 0.9375 -22.28125 L 1.25 -22.015625 C 2.101562 -22.472656 3.007812 -22.675781 3.96875 -22.625 C 4.925781 -22.570312 6.144531 -22.238281 7.625 -21.625 L 15.484375 -18.390625 L 13.296875 -15.796875 L 4.9375 -19.1875 C 3.957031 -19.582031 3.101562 -19.800781 2.375 -19.84375 C 1.644531 -19.882812 0.96875 -19.726562 0.34375 -19.375 C -0.28125 -19.03125 -0.921875 -18.46875 -1.578125 -17.6875 L -4.78125 -13.875 L 4.859375 -5.765625 Z M -2.515625 -20.890625 C -1.390625 -22.234375 -0.863281 -23.492188 -0.9375 -24.671875 C -1.007812 -25.859375 -1.679688 -26.988281 -2.953125 -28.0625 C -4.234375 -29.132812 -5.457031 -29.601562 -6.625 -29.46875 C -7.800781 -29.332031 -8.953125 -28.59375 -10.078125 -27.25 L -14.46875 -22.03125 L -6.90625 -15.671875 Z M -2.515625 -20.890625 "/></g></g></g><g fill="#ffffff" fill-opacity="1"><g transform="translate(119.052761, 107.140143)"><g/></g></g><g fill="#ffffff" fill-opacity="1"><g transform="translate(124.099746, 101.270767)"><g><path d="M 13.3125 -7.75 C 11.25 -6.46875 9.128906 -5.773438 6.953125 -5.671875 C 4.785156 -5.578125 2.671875 -6.160156 0.609375 -7.421875 C -1.441406 -8.679688 -3.3125 -10.675781 -5 -13.40625 C -6.6875 -16.132812 -7.632812 -18.703125 -7.84375 -21.109375 C -8.050781 -23.515625 -7.625 -25.660156 -6.5625 -27.546875 C -5.5 -29.441406 -3.9375 -31.03125 -1.875 -32.3125 C 0.195312 -33.59375 2.3125 -34.28125 4.46875 -34.375 C 6.632812 -34.476562 8.742188 -33.898438 10.796875 -32.640625 C 12.859375 -31.378906 14.734375 -29.382812 16.421875 -26.65625 C 18.109375 -23.925781 19.054688 -21.359375 19.265625 -18.953125 C 19.472656 -16.546875 19.050781 -14.394531 18 -12.5 C 16.945312 -10.613281 15.382812 -9.03125 13.3125 -7.75 Z M 11.703125 -10.359375 C 14.179688 -11.890625 15.601562 -13.835938 15.96875 -16.203125 C 16.34375 -18.578125 15.492188 -21.441406 13.421875 -24.796875 C 11.347656 -28.140625 9.164062 -30.175781 6.875 -30.90625 C 4.59375 -31.644531 2.210938 -31.25 -0.265625 -29.71875 C -5.398438 -26.539062 -5.972656 -21.722656 -1.984375 -15.265625 C 2.003906 -8.816406 6.566406 -7.179688 11.703125 -10.359375 Z M 11.703125 -10.359375 "/></g></g></g><g fill="#ffffff" fill-opacity="1"><g transform="translate(148.859365, 86.808152)"><g/></g></g><g fill="#ffffff" fill-opacity="1"><g transform="translate(156.105667, 83.298961)"><g><path d="M 0.3125 -29.046875 L 6.640625 -4.515625 L 19.71875 -7.890625 L 20.390625 -5.25 L 4.109375 -1.0625 L -2.890625 -28.234375 Z M 0.3125 -29.046875 "/></g></g></g><g fill="#ffffff" fill-opacity="1"><g transform="translate(176.120283, 78.468507)"><g/></g></g><g fill="#ffffff" fill-opacity="1"><g transform="translate(184.03403, 76.990981)"><g><path d="M 7.953125 -27.953125 L 7.578125 -2.609375 L 21.09375 -2.421875 L 21.0625 0.296875 L 4.25 0.0625 L 4.65625 -28 Z M 7.953125 -27.953125 "/></g></g></g><g fill="#ffffff" fill-opacity="1"><g transform="translate(204.614806, 77.591417)"><g/></g></g><g fill="#ffffff" fill-opacity="1"><g transform="translate(213.166302, 78.818282)"><g/></g></g><g fill="#ffffff" fill-opacity="1"><g transform="translate(220.895831, 79.59268)"><g><path d="M 23.046875 -20.828125 C 25.660156 -19.742188 27.71875 -18.34375 29.21875 -16.625 C 30.71875 -14.90625 31.578125 -12.867188 31.796875 -10.515625 C 32.023438 -8.160156 31.535156 -5.53125 30.328125 -2.625 C 29.128906 0.28125 27.617188 2.484375 25.796875 3.984375 C 23.984375 5.492188 21.9375 6.328125 19.65625 6.484375 C 17.375 6.640625 14.925781 6.175781 12.3125 5.09375 L 3.921875 1.625 L 14.65625 -24.296875 Z M 13.078125 2.390625 C 15.242188 3.285156 17.171875 3.6875 18.859375 3.59375 C 20.554688 3.507812 22.085938 2.851562 23.453125 1.625 C 24.828125 0.40625 26.035156 -1.460938 27.078125 -3.984375 C 28.128906 -6.515625 28.597656 -8.691406 28.484375 -10.515625 C 28.378906 -12.335938 27.757812 -13.878906 26.625 -15.140625 C 25.488281 -16.398438 23.835938 -17.476562 21.671875 -18.375 L 16.625 -20.453125 L 8.03125 0.3125 Z M 13.078125 2.390625 "/></g></g></g><g fill="#ffffff" fill-opacity="1"><g transform="translate(246.29358, 90.813247)"><g/></g></g><g fill="#ffffff" fill-opacity="1"><g transform="translate(253.360825, 93.967593)"><g><path d="M 11.25 10.515625 C 9.425781 8.898438 8.15625 7.070312 7.4375 5.03125 C 6.71875 2.988281 6.664062 0.800781 7.28125 -1.53125 C 7.90625 -3.863281 9.28125 -6.234375 11.40625 -8.640625 C 13.53125 -11.035156 15.710938 -12.675781 17.953125 -13.5625 C 20.203125 -14.457031 22.382812 -14.671875 24.5 -14.203125 C 26.613281 -13.734375 28.582031 -12.691406 30.40625 -11.078125 C 32.226562 -9.460938 33.492188 -7.632812 34.203125 -5.59375 C 34.921875 -3.550781 34.972656 -1.363281 34.359375 0.96875 C 33.742188 3.3125 32.375 5.679688 30.25 8.078125 C 28.125 10.484375 25.9375 12.128906 23.6875 13.015625 C 21.4375 13.898438 19.253906 14.109375 17.140625 13.640625 C 15.035156 13.171875 13.070312 12.128906 11.25 10.515625 Z M 13.28125 8.234375 C 15.457031 10.171875 17.734375 10.972656 20.109375 10.640625 C 22.492188 10.316406 24.992188 8.679688 27.609375 5.734375 C 30.222656 2.796875 31.550781 0.125 31.59375 -2.28125 C 31.632812 -4.6875 30.566406 -6.859375 28.390625 -8.796875 C 23.867188 -12.804688 19.085938 -11.972656 14.046875 -6.296875 C 9.015625 -0.617188 8.757812 4.222656 13.28125 8.234375 Z M 13.28125 8.234375 "/></g></g></g><g fill="#ffffff" fill-opacity="1"><g transform="translate(274.3309, 113.522958)"><g/></g></g><g fill="#ffffff" fill-opacity="1"><g transform="translate(280.16794, 118.38592)"><g><path d="M 5.703125 10.859375 L 3.6875 7.046875 L 25.546875 -11.6875 L 27.0625 -8.796875 L 8.96875 6.65625 L 9.1875 7.078125 L 32.65625 1.875 L 34.078125 4.578125 L 16.46875 20.9375 L 16.6875 21.359375 L 39.6875 15.265625 L 41.15625 18.078125 L 13.34375 25.4375 L 11.328125 21.578125 L 27.421875 6.53125 L 27.234375 6.171875 Z M 5.703125 10.859375 "/></g></g></g><g fill="#ffffff" fill-opacity="1"><g transform="translate(295.116479, 149.147789)"><g/></g></g><g fill="#ffffff" fill-opacity="1"><g transform="translate(298.270728, 156.249794)"><g><path d="M 0.9375 7.40625 L 0.53125 4.21875 L 28.375 0.71875 L 28.875 4.734375 L 9.3125 20.984375 L 9.453125 21.453125 L 30.640625 18.78125 L 31.046875 21.96875 L 3.203125 25.46875 L 2.765625 22.03125 L 23.75 5.03125 L 23.625 4.5625 Z M 0.9375 7.40625 "/></g></g></g><g fill="#ffffff" fill-opacity="1"><g transform="translate(301.089378, 183.955983)"><g/></g></g><g fill="#ffffff" fill-opacity="1"><g transform="translate(301.369493, 197.026087)"><g><path d="M -1.640625 12.15625 C -1.460938 10.394531 -1.0625 8.84375 -0.4375 7.5 C 0.175781 6.15625 0.914062 5.054688 1.78125 4.203125 C 2.65625 3.359375 3.582031 2.753906 4.5625 2.390625 L 6.5625 4.40625 L 6.515625 4.890625 C 3.421875 6.328125 1.691406 8.851562 1.328125 12.46875 C 1.117188 14.570312 1.398438 16.175781 2.171875 17.28125 C 2.941406 18.394531 4.113281 19.035156 5.6875 19.203125 C 6.601562 19.296875 7.394531 19.203125 8.0625 18.921875 C 8.738281 18.640625 9.34375 18.132812 9.875 17.40625 C 10.40625 16.6875 10.90625 15.675781 11.375 14.375 L 12.5 11.171875 C 13.320312 8.804688 14.429688 7.109375 15.828125 6.078125 C 17.234375 5.046875 18.914062 4.628906 20.875 4.828125 C 22.257812 4.972656 23.457031 5.457031 24.46875 6.28125 C 25.488281 7.101562 26.234375 8.234375 26.703125 9.671875 C 27.179688 11.109375 27.328125 12.785156 27.140625 14.703125 C 26.921875 16.796875 26.441406 18.535156 25.703125 19.921875 C 24.960938 21.304688 23.957031 22.375 22.6875 23.125 L 20.703125 21.3125 L 20.75 20.828125 C 21.800781 20.109375 22.613281 19.222656 23.1875 18.171875 C 23.757812 17.128906 24.125 15.875 24.28125 14.40625 C 24.46875 12.46875 24.234375 10.96875 23.578125 9.90625 C 22.921875 8.851562 21.929688 8.257812 20.609375 8.125 C 19.347656 8 18.304688 8.257812 17.484375 8.90625 C 16.671875 9.550781 15.976562 10.710938 15.40625 12.390625 L 14.265625 15.640625 C 13.347656 18.296875 12.164062 20.164062 10.71875 21.25 C 9.28125 22.332031 7.535156 22.773438 5.484375 22.578125 C 3.910156 22.410156 2.550781 21.910156 1.40625 21.078125 C 0.257812 20.253906 -0.582031 19.085938 -1.125 17.578125 C -1.675781 16.066406 -1.847656 14.257812 -1.640625 12.15625 Z M -1.640625 12.15625 "/></g></g></g><g fill="#ffffff" fill-opacity="1"><g transform="translate(298.741189, 219.154662)"><g/></g></g><g fill="#ffffff" fill-opacity="1"><g transform="translate(297.703406, 226.942537)"><g><path d="M -6.359375 14.15625 C -5.410156 11.882812 -4.046875 10.078125 -2.265625 8.734375 C -0.492188 7.398438 1.601562 6.648438 4.03125 6.484375 C 6.457031 6.316406 9.066406 6.816406 11.859375 7.984375 C 14.660156 9.160156 16.851562 10.671875 18.4375 12.515625 C 20.019531 14.359375 20.957031 16.378906 21.25 18.578125 C 21.550781 20.785156 21.226562 23.023438 20.28125 25.296875 C 19.269531 27.710938 17.96875 29.53125 16.375 30.75 C 14.789062 31.976562 12.9375 32.5625 10.8125 32.5 L 10.3125 30.015625 L 10.484375 29.578125 C 12.273438 29.484375 13.71875 29 14.8125 28.125 C 15.90625 27.25 16.820312 25.925781 17.5625 24.15625 C 18.238281 22.519531 18.476562 20.921875 18.28125 19.359375 C 18.082031 17.796875 17.351562 16.3125 16.09375 14.90625 C 14.832031 13.5 12.96875 12.28125 10.5 11.25 C 8.050781 10.226562 5.882812 9.757812 4 9.84375 C 2.125 9.9375 0.554688 10.460938 -0.703125 11.421875 C -1.960938 12.378906 -2.929688 13.675781 -3.609375 15.3125 C -4.390625 17.1875 -4.609375 18.894531 -4.265625 20.4375 C -3.921875 21.976562 -2.925781 23.429688 -1.28125 24.796875 L -1.46875 25.25 L -3.3125 26.859375 C -5.351562 25.285156 -6.640625 23.414062 -7.171875 21.25 C -7.703125 19.082031 -7.429688 16.71875 -6.359375 14.15625 Z M -6.359375 14.15625 "/></g></g></g><g fill="#ffffff" fill-opacity="1"><g transform="translate(287.327243, 250.323193)"><g/></g></g><g fill="#ffffff" fill-opacity="1"><g transform="translate(283.845585, 257.424307)"><g><path d="M -2.734375 3.25 L 18.734375 21.328125 L 12.171875 29.125 C 10.960938 30.5625 9.707031 31.566406 8.40625 32.140625 C 7.113281 32.722656 5.820312 32.894531 4.53125 32.65625 C 3.25 32.414062 2.019531 31.796875 0.84375 30.796875 C -0.488281 29.679688 -1.304688 28.421875 -1.609375 27.015625 C -1.921875 25.617188 -1.695312 24.039062 -0.9375 22.28125 L -1.25 22.015625 C -2.101562 22.472656 -3.007812 22.675781 -3.96875 22.625 C -4.925781 22.570312 -6.144531 22.238281 -7.625 21.625 L -15.484375 18.390625 L -13.296875 15.796875 L -4.9375 19.1875 C -3.957031 19.582031 -3.101562 19.800781 -2.375 19.84375 C -1.644531 19.882812 -0.96875 19.726562 -0.34375 19.375 C 0.28125 19.03125 0.921875 18.46875 1.578125 17.6875 L 4.78125 13.875 L -4.859375 5.765625 Z M 2.515625 20.890625 C 1.390625 22.234375 0.863281 23.492188 0.9375 24.671875 C 1.007812 25.859375 1.679688 26.988281 2.953125 28.0625 C 4.234375 29.132812 5.457031 29.601562 6.625 29.46875 C 7.800781 29.332031 8.953125 28.59375 10.078125 27.25 L 14.46875 22.03125 L 6.90625 15.671875 Z M 2.515625 20.890625 "/></g></g></g><g fill="#ffffff" fill-opacity="1"><g transform="translate(267.942125, 275.571142)"><g/></g></g><g fill="#ffffff" fill-opacity="1"><g transform="translate(262.895132, 281.44054)"><g><path d="M -13.3125 7.75 C -11.25 6.46875 -9.128906 5.773438 -6.953125 5.671875 C -4.785156 5.578125 -2.671875 6.160156 -0.609375 7.421875 C 1.441406 8.679688 3.3125 10.675781 5 13.40625 C 6.6875 16.132812 7.632812 18.703125 7.84375 21.109375 C 8.050781 23.515625 7.625 25.660156 6.5625 27.546875 C 5.5 29.441406 3.9375 31.03125 1.875 32.3125 C -0.195312 33.59375 -2.3125 34.28125 -4.46875 34.375 C -6.632812 34.476562 -8.742188 33.898438 -10.796875 32.640625 C -12.859375 31.378906 -14.734375 29.382812 -16.421875 26.65625 C -18.109375 23.925781 -19.054688 21.359375 -19.265625 18.953125 C -19.472656 16.546875 -19.050781 14.394531 -18 12.5 C -16.945312 10.613281 -15.382812 9.03125 -13.3125 7.75 Z M -11.703125 10.359375 C -14.179688 11.890625 -15.601562 13.835938 -15.96875 16.203125 C -16.34375 18.578125 -15.492188 21.441406 -13.421875 24.796875 C -11.347656 28.140625 -9.164062 30.175781 -6.875 30.90625 C -4.59375 31.644531 -2.210938 31.25 0.265625 29.71875 C 5.398438 26.539062 5.972656 21.722656 1.984375 15.265625 C -2.003906 8.816406 -6.566406 7.179688 -11.703125 10.359375 Z M -11.703125 10.359375 "/></g></g></g><g fill="#ffffff" fill-opacity="1"><g transform="translate(238.135535, 295.903138)"><g/></g></g><g fill="#ffffff" fill-opacity="1"><g transform="translate(230.889205, 299.412324)"><g><path d="M -0.3125 29.046875 L -6.640625 4.515625 L -19.71875 7.890625 L -20.390625 5.25 L -4.109375 1.0625 L 2.890625 28.234375 Z M -0.3125 29.046875 "/></g></g></g><g fill="#ffffff" fill-opacity="1"><g transform="translate(210.874617, 304.2428)"><g/></g></g><g fill="#ffffff" fill-opacity="1"><g transform="translate(202.960842, 305.720302)"><g><path d="M -7.953125 27.953125 L -7.578125 2.609375 L -21.09375 2.421875 L -21.0625 -0.296875 L -4.25 -0.0625 L -4.65625 28 Z M -7.953125 27.953125 "/></g></g></g><g fill="#ffffff" fill-opacity="1"><g transform="translate(182.380066, 305.119883)"><g/></g></g><g fill="#ffffff" fill-opacity="1"><g transform="translate(173.828584, 303.892992)"><g/></g></g><g fill="#ffffff" fill-opacity="1"><g transform="translate(166.099041, 303.118617)"><g><path d="M -23.046875 20.828125 C -25.660156 19.742188 -27.71875 18.34375 -29.21875 16.625 C -30.71875 14.90625 -31.578125 12.867188 -31.796875 10.515625 C -32.023438 8.160156 -31.535156 5.53125 -30.328125 2.625 C -29.128906 -0.28125 -27.617188 -2.484375 -25.796875 -3.984375 C -23.984375 -5.492188 -21.9375 -6.328125 -19.65625 -6.484375 C -17.375 -6.640625 -14.925781 -6.175781 -12.3125 -5.09375 L -3.921875 -1.625 L -14.65625 24.296875 Z M -13.078125 -2.390625 C -15.242188 -3.285156 -17.171875 -3.6875 -18.859375 -3.59375 C -20.554688 -3.507812 -22.085938 -2.851562 -23.453125 -1.625 C -24.828125 -0.40625 -26.035156 1.460938 -27.078125 3.984375 C -28.128906 6.515625 -28.597656 8.691406 -28.484375 10.515625 C -28.378906 12.335938 -27.757812 13.878906 -26.625 15.140625 C -25.488281 16.398438 -23.835938 17.476562 -21.671875 18.375 L -16.625 20.453125 L -8.03125 -0.3125 Z M -13.078125 -2.390625 "/></g></g></g><g fill="#ffffff" fill-opacity="1"><g transform="translate(140.701306, 291.898045)"><g/></g></g><g fill="#ffffff" fill-opacity="1"><g transform="translate(133.634068, 288.74368)"><g><path d="M -11.25 -10.515625 C -9.425781 -8.898438 -8.15625 -7.070312 -7.4375 -5.03125 C -6.71875 -2.988281 -6.664062 -0.800781 -7.28125 1.53125 C -7.90625 3.863281 -9.28125 6.234375 -11.40625 8.640625 C -13.53125 11.035156 -15.710938 12.675781 -17.953125 13.5625 C -20.203125 14.457031 -22.382812 14.671875 -24.5 14.203125 C -26.613281 13.734375 -28.582031 12.691406 -30.40625 11.078125 C -32.226562 9.460938 -33.492188 7.632812 -34.203125 5.59375 C -34.921875 3.550781 -34.972656 1.363281 -34.359375 -0.96875 C -33.742188 -3.3125 -32.375 -5.679688 -30.25 -8.078125 C -28.125 -10.484375 -25.9375 -12.128906 -23.6875 -13.015625 C -21.4375 -13.898438 -19.253906 -14.109375 -17.140625 -13.640625 C -15.035156 -13.171875 -13.070312 -12.128906 -11.25 -10.515625 Z M -13.28125 -8.234375 C -15.457031 -10.171875 -17.734375 -10.972656 -20.109375 -10.640625 C -22.492188 -10.316406 -24.992188 -8.679688 -27.609375 -5.734375 C -30.222656 -2.796875 -31.550781 -0.125 -31.59375 2.28125 C -31.632812 4.6875 -30.566406 6.859375 -28.390625 8.796875 C -23.867188 12.804688 -19.085938 11.972656 -14.046875 6.296875 C -9.015625 0.617188 -8.757812 -4.222656 -13.28125 -8.234375 Z M -13.28125 -8.234375 "/></g></g></g><g fill="#ffffff" fill-opacity="1"><g transform="translate(112.663971, 269.188335)"><g/></g></g><g fill="#ffffff" fill-opacity="1"><g transform="translate(106.826954, 264.325358)"><g><path d="M -5.703125 -10.859375 L -3.6875 -7.046875 L -25.546875 11.6875 L -27.0625 8.796875 L -8.96875 -6.65625 L -9.1875 -7.078125 L -32.65625 -1.875 L -34.078125 -4.578125 L -16.46875 -20.9375 L -16.6875 -21.359375 L -39.6875 -15.265625 L -41.15625 -18.078125 L -13.34375 -25.4375 L -11.328125 -21.578125 L -27.421875 -6.53125 L -27.234375 -6.171875 Z M -5.703125 -10.859375 "/></g></g></g><g fill="#ffffff" fill-opacity="1"><g transform="translate(91.8784, 233.563489)"><g/></g></g><g fill="#ffffff" fill-opacity="1"><g transform="translate(88.724153, 226.461484)"><g><path d="M -0.9375 -7.40625 L -0.53125 -4.21875 L -28.375 -0.71875 L -28.875 -4.734375 L -9.3125 -20.984375 L -9.453125 -21.453125 L -30.640625 -18.78125 L -31.046875 -21.96875 L -3.203125 -25.46875 L -2.765625 -22.03125 L -23.75 -5.03125 L -23.625 -4.5625 Z M -0.9375 -7.40625 "/></g></g></g></svg>